# Blender v2.78 (sub 5) OBJ File: 'lathe2.blend'
# www.blender.org
mtllib handle.mtl
o handle
v 0.896103 1.524183 1.446520
v 0.896103 1.516715 1.528116
v 0.896103 1.627906 1.661712
v 0.796103 1.494310 1.772903
v 0.796103 1.627906 1.661712
v 0.796103 1.516715 1.528116
v 0.996104 1.383177 1.639445
v 0.996104 1.627965 1.661849
v 0.996104 1.494369 1.773041
v 0.996103 1.486900 1.854637
v 0.996104 1.516774 1.528254
v 0.996099 1.524242 1.446658
v 0.996104 1.449821 1.810304
v 0.896103 1.709502 1.669180
v 0.896103 1.486841 1.854499
v 0.896103 1.494310 1.772903
v 0.896103 1.301522 1.631839
v 0.896103 1.383118 1.639307
v 0.996104 1.301581 1.631976
v 0.996104 1.709561 1.669318
v 0.996104 1.531315 1.817260
v 0.896103 1.450381 1.809868
v 0.896103 1.531482 1.817342
v 0.996104 1.672134 1.624902
v 0.996104 1.560943 1.491306
v 0.896103 1.479356 1.483454
v 0.996104 1.345818 1.594783
v 0.996104 1.479415 1.483592
v 0.896103 1.345759 1.594645
v 0.896103 1.664785 1.705800
v 0.996103 1.665232 1.706401
v 0.996104 1.338828 1.676540
v 0.896103 1.338769 1.676402
v 0.896103 1.561428 1.490718
v 0.896103 1.672620 1.624314
v 0.796103 1.383118 1.639307
v 0.796103 1.531482 1.817342
v 0.796103 1.479356 1.483454
v 0.796103 1.345759 1.594645
v 0.796103 1.664785 1.705800
vt 0.265625 0.968750
vt 0.265625 0.992188
vt 0.250000 0.992188
vt 0.250000 0.968750
vt 0.304688 0.929688
vt 0.304688 0.937500
vt 0.296875 0.937500
vt 0.296875 0.929688
vt 0.203125 0.992188
vt 0.203125 0.968750
vt 0.218750 0.968750
vt 0.218750 0.992188
vt 0.218750 0.960938
vt 0.234375 0.960938
vt 0.234375 0.968750
vt 0.218750 0.968750
vt 0.203125 1.000000
vt 0.218750 1.000000
vt 0.164062 0.968750
vt 0.171875 0.968750
vt 0.171875 0.992188
vt 0.164062 0.992188
vt 0.281250 0.992188
vt 0.265625 0.992188
vt 0.265625 0.968750
vt 0.281250 0.968750
vt 0.203125 0.992188
vt 0.187500 0.992188
vt 0.187500 0.968750
vt 0.203125 0.968750
vt 0.140625 0.968750
vt 0.140625 0.960938
vt 0.164062 0.960938
vt 0.203125 0.960938
vt 0.218750 0.960938
vt 0.203125 1.000000
vt 0.187500 1.000000
vt 0.171875 0.960938
vt 0.132812 0.968750
vt 0.132812 0.960938
vt 0.273438 0.929688
vt 0.281250 0.929688
vt 0.281250 0.945312
vt 0.273438 0.945312
vt 0.257812 0.929688
vt 0.265625 0.929688
vt 0.265625 0.945312
vt 0.257812 0.945312
vt 0.250000 0.968750
vt 0.250000 0.992188
vt 0.234375 0.992188
vt 0.234375 0.968750
vt 0.250000 0.960938
vt 0.234375 0.960938
vt 0.187500 0.960938
vt 0.203125 0.960938
vt 0.132812 1.000000
vt 0.132812 0.992188
vt 0.140625 0.992188
vt 0.140625 1.000000
vt 0.296875 0.937500
vt 0.289062 0.937500
vt 0.289062 0.929688
vt 0.296875 0.929688
vt 0.312500 0.968750
vt 0.312500 0.992188
vt 0.296875 0.992188
vt 0.296875 0.968750
vt 0.218750 0.945312
vt 0.210938 0.945312
vt 0.210938 0.929688
vt 0.218750 0.929688
vt 0.343750 0.992188
vt 0.343750 0.968750
vt 0.359375 0.968750
vt 0.359375 0.992188
vt 0.234375 0.929688
vt 0.234375 0.945312
vt 0.226562 0.945312
vt 0.226562 0.929688
vt 0.195312 0.945312
vt 0.195312 0.929688
vt 0.203125 0.929688
vt 0.203125 0.945312
vt 0.242188 0.929688
vt 0.250000 0.929688
vt 0.250000 0.945312
vt 0.242188 0.945312
vt 0.289062 0.937500
vt 0.296875 0.937500
vt 0.296875 0.945312
vt 0.289062 0.945312
vt 0.296875 0.945312
vt 0.296875 0.937500
vt 0.304688 0.937500
vt 0.304688 0.945312
vt 0.234375 0.992188
vt 0.218750 0.992188
vt 0.234375 1.000000
vt 0.218750 1.000000
vt 0.250000 1.000000
vt 0.171875 1.000000
vt 0.164062 1.000000
vt 0.328125 0.968750
vt 0.328125 0.992188
vt 0.312500 0.992188
vt 0.312500 0.968750
vt 0.296875 0.992188
vt 0.281250 0.992188
vt 0.281250 0.968750
vt 0.296875 0.968750
vt 0.398438 0.992188
vt 0.390625 0.992188
vt 0.390625 0.968750
vt 0.398438 0.968750
vt 0.328125 0.992188
vt 0.328125 0.968750
vt 0.343750 0.968750
vt 0.343750 0.992188
vt 0.359375 0.992188
vt 0.359375 0.968750
vt 0.375000 0.968750
vt 0.375000 0.992188
vt 0.382812 0.968750
vt 0.390625 0.968750
vt 0.390625 0.992188
vt 0.382812 0.992188
vn -0.0004 -0.7686 0.6397
vn -1.0000 0.0000 0.0000
vn -0.0038 -0.7683 0.6400
vn 0.0001 0.6418 0.7669
vn -0.0038 -0.7708 0.6371
vn 1.0000 0.0000 0.0000
vn 0.0004 0.7686 -0.6397
vn 0.0014 -0.6397 -0.7686
vn -0.0004 -0.7673 0.6413
vn 0.0014 -0.6435 -0.7654
vn 1.0000 0.0000 -0.0001
vn 0.0000 -0.7670 0.6416
vn 0.0000 0.7670 -0.6416
vn 0.0075 0.7686 -0.6397
vn 0.0040 0.7686 -0.6397
vn 0.0014 -0.6359 -0.7718
vn 0.0000 -0.6397 -0.7686
vn 0.0000 0.6417 0.7669
vn -0.0029 0.6397 0.7686
vn -0.0045 0.6376 0.7703
vn -0.0014 0.6397 0.7686
vn 0.0000 0.6397 0.7686
usemtl lathebase
s off
f 3/1/1 2/2/1 11/3/1 8/4/1
f 15/5/2 23/6/2 16/7/2 22/8/2
f 22/9/3 33/10/3 32/11/3 13/12/3
f 15/13/4 10/14/4 21/15/4 23/16/4
f 15/17/5 22/9/5 13/12/5 10/18/5
f 11/19/6 25/20/6 24/21/6 8/22/6
f 7/23/7 18/24/7 16/25/7 9/26/7
f 27/27/8 29/28/8 26/29/8 28/30/8
f 11/19/6 7/31/6 27/32/6 28/33/6
f 32/11/9 33/10/9 17/34/9 19/35/9
f 27/27/10 19/36/10 17/37/10 29/28/10
f 11/19/11 28/33/11 12/38/11 25/20/11
f 32/39/6 19/40/6 27/32/6 7/31/6
f 29/41/12 18/42/12 36/43/12 39/44/12
f 2/45/13 26/46/13 38/47/13 6/48/13
f 34/49/14 35/50/14 24/51/14 25/52/14
f 1/53/15 34/49/15 25/52/15 12/54/15
f 28/30/16 26/29/16 1/55/16 12/56/16
f 10/57/6 13/58/6 9/59/6 21/60/6
f 30/61/2 14/62/2 35/63/2 3/64/2
f 3/65/17 16/66/17 4/67/17 5/68/17
f 30/69/13 3/70/13 5/71/13 40/72/13
f 23/73/18 30/74/18 40/75/18 37/76/18
f 36/77/2 6/78/2 38/79/2 39/80/2
f 37/81/2 40/82/2 5/83/2 4/84/2
f 16/85/12 23/86/12 37/87/12 4/88/12
f 2/89/2 34/90/2 1/91/2 26/92/2
f 18/93/2 29/94/2 17/95/2 33/96/2
f 23/16/19 21/15/19 31/97/19 30/98/19
f 30/98/20 31/97/20 20/99/20 14/100/20
f 24/51/15 35/50/15 14/101/15 20/99/15
f 20/102/6 31/103/6 8/22/6 24/21/6
f 8/22/6 31/103/6 21/60/6 9/59/6
f 7/31/6 9/59/6 13/58/6 32/39/6
f 7/104/21 11/105/21 2/106/21 18/107/21
f 9/108/8 16/109/8 3/110/8 8/111/8
f 3/112/2 35/113/2 34/114/2 2/115/2
f 18/116/22 2/117/22 6/118/22 36/119/22
f 26/120/17 29/121/17 39/122/17 38/123/17
f 22/124/2 16/125/2 18/126/2 33/127/2
